<?xml version="1.0" standalone="no"?>
<!DOCTYPE svg PUBLIC "-//W3C//DTD SVG 20010904//EN"
 "http://www.w3.org/TR/2001/REC-SVG-20010904/DTD/svg10.dtd">
<svg version="1.0" xmlns="http://www.w3.org/2000/svg"
 width="133.000000pt" height="141.000000pt" viewBox="0 0 133.000000 141.000000"
 preserveAspectRatio="xMidYMid meet">

<g transform="translate(0.000000,141.000000) scale(0.100000,-0.100000)"
fill="#000000" stroke="none">
<path d="M555 1350 c-140 -34 -272 -160 -315 -297 -51 -166 -9 -342 110 -464
254 -259 677 -119 741 245 47 275 -159 529 -429 525 -42 -1 -90 -4 -107 -9z
m445 -589 c0 -14 -49 -83 -87 -122 -84 -88 -224 -121 -335 -79 -64 24 -155
100 -194 162 -13 21 -24 40 -24 43 0 3 144 5 320 5 176 0 320 -4 320 -9z"/>
<path d="M330 362 c-112 -45 -204 -133 -255 -245 -18 -40 -35 -82 -38 -94 l-5
-23 629 0 c346 0 629 2 629 4 0 3 -11 35 -25 73 -49 131 -151 237 -274 283
l-62 23 -42 -21 c-69 -34 -126 -45 -232 -45 -82 1 -113 5 -175 27 -41 15 -82
29 -90 31 -8 3 -35 -4 -60 -13z"/>
</g>
</svg>
